<?xml version="1.0" standalone="no"?><!DOCTYPE svg PUBLIC "-//W3C//DTD SVG 1.1//EN" "http://www.w3.org/Graphics/SVG/1.1/DTD/svg11.dtd"><svg t="1615641345571" class="icon" viewBox="0 0 1024 1024" version="1.1" xmlns="http://www.w3.org/2000/svg" p-id="2144" width="200" height="200" xmlns:xlink="http://www.w3.org/1999/xlink"><defs><style type="text/css"></style></defs><path d="M974.318996 401.441998c-7.607258-23.483854-27.457352-40.274262-51.814086-43.818995L678.404426 322.05902 569.223794 100.227726c-10.912537-22.101367-32.951483-35.83209-57.538461-35.83209 0 0-0.036839 0-0.074701 0.01842-24.606421 0.01535-46.628994 13.782911-57.467853 35.850509l-109.166305 221.794455-244.093321 35.563984c-24.337291 3.544733-44.188408 20.316721-51.80283 43.766806-7.610328 23.451108-1.400906 48.734958 16.223496 65.995063l176.632883 172.649152-41.680285 243.713674c-4.178159 24.315802 5.587252 48.433082 25.455765 62.953797 19.883863 14.491039 45.839001 16.432251 67.64668 4.931313l218.324424-115.092271 218.320331 115.092271c9.481955 5.001921 19.727297 7.469112 29.939893 7.469112 13.231349 0 26.383904-4.155646 37.617759-12.328793 19.906375-14.483876 29.704532-38.582737 25.578562-62.969147l-41.709961-243.791445L958.043311 467.404316C975.668737 450.199469 981.914998 424.915619 974.318996 401.441998z" fill="#cccccc" p-id="2145"></path></svg>